<?xml version="1.0" encoding="utf-8"?>
<!-- Generator: Adobe Illustrator 21.1.0, SVG Export Plug-In . SVG Version: 6.00 Build 0)  -->
<svg version="1.1" id="Layer_1" xmlns="http://www.w3.org/2000/svg" xmlns:xlink="http://www.w3.org/1999/xlink" x="0px" y="0px"
	 viewBox="0 0 3378.3 1002.1" style="enable-background:new 0 0 3378.3 1002.1;" xml:space="preserve">
<style type="text/css">
	.st0{fill:#333333;}
	.st1{fill:none;stroke:#010101;stroke-width:10;stroke-miterlimit:10;}
	.st2{fill:#F47621;}
	.st3{fill:#F3C915;}
	.st4{fill:#93C83E;}
	.st5{fill:#F05224;}
	.st6{fill:#33A0DA;}
</style>
<g>
	<path class="st0" d="M1006,239.6l79.6,222.5l78.7-222.5h60.1l-114.8,294.2h-48.1L945.9,239.6H1006z"/>
	<path class="st0" d="M1324.2,538c-17.7,0-33.6-3-47.6-9.1c-14.1-6.1-26-14.3-35.8-24.7c-9.8-10.4-17.3-22.3-22.6-35.8
		c-5.3-13.5-7.9-27.8-7.9-42.7c0-15.2,2.6-29.6,7.9-43.1c5.2-13.5,12.8-25.5,22.6-35.8c9.8-10.4,21.8-18.6,35.8-24.7
		c14.1-6.1,30-9.1,47.6-9.1c17.7,0,33.5,3,47.4,9.1c13.9,6.1,25.8,14.3,35.6,24.7c9.8,10.4,17.3,22.3,22.6,35.8
		c5.2,13.5,7.9,27.9,7.9,43.1c0,14.9-2.6,29.1-7.9,42.7c-5.3,13.5-12.7,25.5-22.4,35.8c-9.7,10.4-21.5,18.6-35.6,24.7
		C1357.7,534.9,1341.9,538,1324.2,538z M1267.4,425.7c0,9.7,1.5,18.4,4.4,26.3s6.9,14.7,12,20.5c5.1,5.8,11.1,10.3,18,13.5
		c6.9,3.2,14.4,4.8,22.4,4.8c8,0,15.5-1.6,22.4-4.8c6.9-3.2,12.9-7.7,18-13.5c5.1-5.8,9.1-12.7,12-20.7c2.9-8,4.4-16.8,4.4-26.5
		c0-9.4-1.5-18.1-4.4-26.1c-2.9-8-6.9-14.9-12-20.7c-5.1-5.8-11.1-10.3-18-13.5c-6.9-3.2-14.4-4.8-22.4-4.8c-8,0-15.5,1.7-22.4,5
		c-6.9,3.3-12.9,7.9-18,13.7c-5.1,5.8-9.1,12.7-12,20.7C1268.9,407.6,1267.4,416.3,1267.4,425.7z"/>
	<path class="st0" d="M1474.6,231.3h55.5v232.9c0,8,1.9,14.2,5.8,18.6c3.9,4.4,9.4,6.6,16.6,6.6c3.3,0,7-0.6,11-1.7
		c4-1.1,7.8-2.5,11.4-4.1l7.5,42.3c-7.5,3.6-16.2,6.4-26.1,8.3c-9.9,1.9-18.9,2.9-26.9,2.9c-17.4,0-30.9-4.6-40.4-13.9
		c-9.5-9.3-14.3-22.4-14.3-39.6V231.3z"/>
	<path class="st0" d="M1736.4,522.6c-7.5,3.3-16.6,6.6-27.3,9.9c-10.8,3.3-22.1,5-34,5c-7.7,0-15-1-21.8-2.9
		c-6.8-1.9-12.7-5-17.8-9.3c-5.1-4.3-9.2-9.8-12.2-16.6c-3-6.8-4.6-15-4.6-24.7V359.4h-28.6v-42.7h28.6v-70.4h55.5v70.4h45.6v42.7
		h-45.6v106.1c0,7.7,2,13.2,6,16.4c4,3.2,8.9,4.8,14.7,4.8s11.5-1,17-2.9c5.5-1.9,9.9-3.6,13.3-5L1736.4,522.6z"/>
	<path class="st0" d="M1831.7,538c-22.4,0-39.4-7.2-51-21.5c-11.6-14.4-17.4-35.6-17.4-63.8V316.7h55.5v123.9
		c0,33.4,12,50.1,36,50.1c10.8,0,21.2-3.2,31.3-9.7c10.1-6.5,18.3-16.4,24.7-29.6V316.7h55.5V470c0,5.8,1,9.9,3.1,12.4
		c2.1,2.5,5.5,3.9,10.2,4.1v47.2c-5.5,1.1-10.2,1.8-13.9,2.1c-3.7,0.3-7.1,0.4-10.2,0.4c-9.9,0-18-2.3-24.2-6.8s-9.9-10.8-11-18.9
		l-1.2-17.4c-9.7,14.9-22.1,26.1-37.3,33.6C1866.7,534.2,1850,538,1831.7,538z"/>
	<path class="st0" d="M2103.5,538c-18.2,0-36-2.9-53.5-8.7c-17.4-5.8-32.3-14.1-44.7-24.9l20.7-34.8c13.3,9.4,26.2,16.5,38.7,21.3
		c12.6,4.8,25.1,7.3,37.5,7.3c11,0,19.7-2.1,26.1-6.2c6.4-4.1,9.5-10.1,9.5-17.8c0-7.7-3.7-13.4-11.2-17
		c-7.5-3.6-19.6-7.7-36.5-12.4c-14.1-3.9-26.1-7.6-36-11.2c-9.9-3.6-18-7.7-24-12.2c-6.1-4.6-10.5-9.8-13.3-15.7
		c-2.8-5.9-4.1-13.1-4.1-21.3c0-11,2.1-21,6.4-29.8c4.3-8.8,10.3-16.4,18-22.6c7.7-6.2,16.8-11,27.1-14.3c10.4-3.3,21.6-5,33.8-5
		c16.3,0,31.6,2.4,45.8,7c14.2,4.7,27.3,12.3,39.2,22.8l-22.4,33.6c-11.1-8.3-21.8-14.4-32.1-18.2c-10.4-3.9-20.7-5.8-30.9-5.8
		c-9.4,0-17.3,1.9-23.6,5.8c-6.4,3.9-9.5,10.1-9.5,18.6c0,3.9,0.8,7,2.3,9.5c1.5,2.5,3.9,4.7,7.3,6.6c3.3,1.9,7.7,3.8,13.1,5.6
		c5.4,1.8,12.1,3.7,20.1,5.6c14.9,3.9,27.7,7.7,38.3,11.6c10.6,3.9,19.3,8.3,26.1,13.3c6.8,5,11.7,10.7,14.9,17.2
		c3.2,6.5,4.8,14.3,4.8,23.4c0,21.3-7.9,38.1-23.6,50.3C2152,531.8,2130.6,538,2103.5,538z"/>
	<path class="st0" d="M2315.7,240.5h52.6l33.1,97.4l33.1-97.4h53l-50.1,133.8l37.3,94.1l83.3-228.7h62.2l-119.7,294.2h-48.1
		l-51-123.5l-51,123.5h-48.1l-118.9-294.2h61.3l83.7,228.7l36.5-94.1L2315.7,240.5z"/>
	<path class="st0" d="M2683.6,538c-10.5,0-20.3-1.7-29.4-5.2c-9.1-3.5-17-8.3-23.6-14.5c-6.6-6.2-11.8-13.5-15.5-21.8
		c-3.7-8.3-5.6-17.4-5.6-27.3c0-10.2,2.3-19.7,6.8-28.4s10.9-16.1,19.1-22.2c8.1-6.1,17.9-10.8,29.2-14.3
		c11.3-3.5,23.8-5.2,37.3-5.2c9.7,0,19.1,0.8,28.4,2.5c9.3,1.7,17.5,4,24.7,7v-12.4c0-14.4-4.1-25.4-12.2-33.1
		c-8.2-7.7-20.2-11.6-36.3-11.6c-11.6,0-22.9,2.1-34,6.2c-11.1,4.1-22.4,10.2-34,18.2l-17-35.2c27.9-18.5,58-27.8,90.3-27.8
		c31.2,0,55.5,7.7,72.7,23c17.3,15.3,25.9,37.5,25.9,66.5V470c0,5.8,1,9.9,3.1,12.4c2.1,2.5,5.5,3.9,10.2,4.1v47.2
		c-9.4,1.9-17.5,2.9-24.4,2.9c-10.5,0-18.6-2.3-24.2-7c-5.7-4.7-9.2-10.9-10.6-18.6l-1.2-12c-9.7,12.7-21.4,22.4-35.2,29
		C2714.1,534.6,2699.4,538,2683.6,538z M2699.4,497.3c9.4,0,18.3-1.7,26.7-5c8.4-3.3,15-7.7,19.7-13.3c6.1-4.7,9.1-9.9,9.1-15.7
		v-24.9c-6.6-2.5-13.8-4.5-21.5-6c-7.7-1.5-15.2-2.3-22.4-2.3c-14.4,0-26.1,3.3-35.2,9.7c-9.1,6.5-13.7,14.7-13.7,24.7
		c0,9.4,3.6,17.2,10.8,23.4C2680,494.2,2688.9,497.3,2699.4,497.3z"/>
	<path class="st0" d="M2914.8,533.8l-80-217.1h57.2l55.1,172l55.5-172h52.2l-80,217.1H2914.8z"/>
	<path class="st0" d="M3177.1,538c-17.4,0-33.1-3-47.2-8.9s-26.1-14-36-24.2c-9.9-10.2-17.6-22.1-23-35.6
		c-5.4-13.5-8.1-27.8-8.1-42.7c0-15.5,2.6-30,7.9-43.7c5.2-13.7,12.8-25.7,22.8-36s22-18.6,36.3-24.7c14.2-6.1,30.2-9.1,47.9-9.1
		c17.7,0,33.5,3,47.4,9.1c13.9,6.1,25.8,14.2,35.6,24.4c9.8,10.2,17.3,22.1,22.4,35.6c5.1,13.5,7.7,27.6,7.7,42.3
		c0,3.6-0.1,7-0.2,10.4c-0.1,3.3-0.5,6.1-1,8.3h-167.8c0.8,8.6,2.9,16.2,6.2,22.8c3.3,6.6,7.6,12.3,12.8,17
		c5.2,4.7,11.2,8.3,17.8,10.8c6.6,2.5,13.5,3.7,20.7,3.7c11,0,21.5-2.7,31.3-8.1c9.8-5.4,16.5-12.5,20.1-21.3l47.6,13.3
		c-8,16.6-20.8,30.2-38.3,40.8C3222.3,532.6,3201.4,538,3177.1,538z M3233.4,407c-1.4-16.3-7.4-29.3-18-39.2
		c-10.6-9.8-23.6-14.7-38.7-14.7c-7.5,0-14.4,1.3-20.9,3.9c-6.5,2.6-12.2,6.3-17.2,11c-5,4.7-9.1,10.4-12.2,17c-3.2,6.6-5,14-5.6,22
		H3233.4z"/>
</g>
<line class="st1" x1="971.3" y1="621.1" x2="3298" y2="621.1"/>
<g>
	<path class="st0" d="M1061,849.4c-0.7-3.6-1.3-6.8-1.7-9.6c-0.4-2.8-0.6-5.5-0.7-8.3c-4.1,5.7-9.4,10.6-15.9,14.4
		c-6.5,3.9-13.6,5.8-21.1,5.8c-12.5,0-22-3.2-28.6-9.6c-6.5-6.4-9.8-15.2-9.8-26.4c0-11.4,4.6-20.4,13.9-26.8
		c9.3-6.4,21.9-9.7,37.8-9.7h23.7v-11.8c0-7-2.1-12.5-6.4-16.6c-4.3-4.1-10.4-6.1-18.2-6.1c-7,0-12.7,1.8-17.1,5.4
		c-4.4,3.6-6.6,7.9-6.6,12.9h-20.9l-0.2-0.7c-0.4-8.7,3.7-16.7,12.4-23.9c8.7-7.2,19.9-10.8,33.7-10.8c13.6,0,24.5,3.4,32.8,10.3
		c8.3,6.9,12.4,16.8,12.4,29.8v57.6c0,4.3,0.2,8.4,0.7,12.4c0.4,4,1.3,7.9,2.4,11.7H1061z M1024.7,833.4c7.9,0,15-2,21.4-6.1
		c6.4-4,10.5-8.7,12.4-13.9V794H1034c-8.8,0-15.8,2.2-21.1,6.6c-5.3,4.4-7.9,9.6-7.9,15.5c0,5.3,1.7,9.5,5,12.6
		C1013.3,831.8,1018.2,833.4,1024.7,833.4z"/>
	<path class="st0" d="M1261.4,794.1c0,17.2-4.1,31.2-12.4,41.7c-8.3,10.6-19.7,15.9-34.3,15.9c-7.4,0-13.9-1.2-19.5-3.7
		c-5.6-2.5-10.3-6.2-14.3-11.1v58.5h-21.9V729.8h16.7l3.4,15.5c3.9-5.7,8.8-10.1,14.6-13.2c5.8-3,12.6-4.5,20.4-4.5
		c14.9,0,26.4,5.9,34.7,17.6c8.2,11.8,12.4,27.3,12.4,46.6V794.1z M1239.5,791.7c0-13.5-2.7-24.7-8-33.4
		c-5.4-8.7-13.3-13.1-23.7-13.1c-6.3,0-11.6,1.4-16.1,4.3c-4.4,2.8-8,6.7-10.8,11.6v57.7c2.7,4.9,6.3,8.8,10.8,11.5
		c4.4,2.8,9.9,4.1,16.3,4.1c10.4,0,18.2-3.8,23.5-11.3c5.3-7.5,8-17.3,8-29.2V791.7z"/>
	<path class="st0" d="M1437.5,794.1c0,17.2-4.1,31.2-12.4,41.7c-8.3,10.6-19.7,15.9-34.3,15.9c-7.4,0-13.9-1.2-19.5-3.7
		c-5.6-2.5-10.3-6.2-14.3-11.1v58.5h-21.9V729.8h16.7l3.4,15.5c3.9-5.7,8.8-10.1,14.6-13.2c5.8-3,12.6-4.5,20.4-4.5
		c14.9,0,26.4,5.9,34.7,17.6c8.2,11.8,12.4,27.3,12.4,46.6V794.1z M1415.7,791.7c0-13.5-2.7-24.7-8-33.4
		c-5.4-8.7-13.3-13.1-23.7-13.1c-6.3,0-11.6,1.4-16.1,4.3c-4.4,2.8-8,6.7-10.8,11.6v57.7c2.7,4.9,6.3,8.8,10.8,11.5
		c4.4,2.8,9.9,4.1,16.3,4.1c10.4,0,18.2-3.8,23.5-11.3c5.3-7.5,8-17.3,8-29.2V791.7z"/>
	<path class="st0" d="M1581.1,817.6c0-4.8-1.8-8.7-5.5-11.8s-10.6-5.8-20.8-8.1c-14.6-3.2-25.5-7.4-32.9-12.9
		c-7.4-5.4-11-12.8-11-22.1c0-9.7,4.1-18,12.4-24.8c8.3-6.8,19.1-10.3,32.4-10.3c14,0,25.1,3.6,33.3,10.7
		c8.2,7.1,12.2,15.8,11.8,26.1l-0.2,0.7h-20.9c0-5.2-2.2-9.9-6.6-14.1c-4.4-4.2-10.2-6.2-17.5-6.2c-7.8,0-13.5,1.7-17.3,5.1
		c-3.8,3.4-5.7,7.5-5.7,12.3c0,4.7,1.7,8.4,5,11.2c3.3,2.7,10.1,5.2,20.3,7.3c15.2,3.2,26.4,7.6,33.8,13.2
		c7.4,5.6,11.1,13,11.1,22.4c0,10.6-4.3,19.2-12.9,25.8c-8.6,6.6-19.9,9.8-33.8,9.8c-15.3,0-27.4-3.9-36.2-11.6
		c-8.8-7.7-13-16.8-12.5-27.1l0.2-0.7h20.9c0.4,7.7,3.3,13.3,8.7,16.9c5.4,3.6,11.7,5.3,19,5.3c7.8,0,13.8-1.6,18.2-4.7
		C1578.9,826.7,1581.1,822.6,1581.1,817.6z"/>
	<path class="st0" d="M1804.3,699.2h-21.9V677h21.9V699.2z M1804.3,849.4h-21.9V729.8h21.9V849.4z"/>
	<path class="st0" d="M1904.5,729.8l1.6,17.8c4-6.3,9-11.3,15-14.8c6-3.5,12.9-5.3,20.6-5.3c12.9,0,23,3.8,30.1,11.3
		c7.1,7.6,10.6,19.2,10.6,35v75.5h-21.9v-75c0-10.5-2.1-18-6.3-22.4c-4.2-4.4-10.6-6.6-19.1-6.6c-6.3,0-11.9,1.5-16.7,4.5
		c-4.8,3-8.7,7.1-11.6,12.4v87.2h-21.9V729.8H1904.5z"/>
	<path class="st0" d="M2184.1,729.8l1.6,15.7c3.9-5.7,8.9-10.1,14.9-13.2c6-3.1,13-4.7,21-4.7s14.8,1.8,20.6,5.5
		c5.7,3.7,10,9.2,12.9,16.6c3.8-6.8,8.8-12.2,15-16.1c6.2-4,13.5-6,21.7-6c12.2,0,21.9,4.2,29,12.5c7.1,8.4,10.6,20.9,10.6,37.7
		v71.5h-21.9v-71.7c0-11.8-2-20.1-6.1-25c-4.1-4.9-10.1-7.4-18.2-7.4c-7.5,0-13.5,2.6-18.1,7.7c-4.6,5.2-7.3,11.7-8.2,19.6v0.9v75.9
		h-22v-71.7c0-11.2-2.1-19.4-6.3-24.6c-4.2-5.2-10.2-7.8-18-7.8c-6.7,0-12.1,1.4-16.4,4.1c-4.3,2.7-7.6,6.6-9.9,11.5v88.5h-21.9
		V729.8H2184.1z"/>
	<path class="st0" d="M2433.7,699.2h-21.9V677h21.9V699.2z M2433.7,849.4h-21.9V729.8h21.9V849.4z"/>
	<path class="st0" d="M2533.9,729.8l1.6,17.8c4-6.3,9-11.3,15-14.8c6-3.5,12.9-5.3,20.6-5.3c12.9,0,23,3.8,30.1,11.3
		c7.1,7.6,10.6,19.2,10.6,35v75.5h-21.9v-75c0-10.5-2.1-18-6.3-22.4c-4.2-4.4-10.6-6.6-19.1-6.6c-6.3,0-11.9,1.5-16.7,4.5
		c-4.8,3-8.7,7.1-11.6,12.4v87.2h-21.9V729.8H2533.9z"/>
	<path class="st0" d="M2766.7,831.7c-3.8,6.4-8.6,11.3-14.5,14.8c-5.9,3.5-12.8,5.2-20.5,5.2c-13.1,0-23.3-4.2-30.6-12.5
		c-7.3-8.3-11-21.3-11-38.9v-70.5h21.9v70.7c0,12.7,1.9,21.5,5.7,26.3c3.8,4.8,9.6,7.2,17.6,7.2c7.8,0,14.2-1.6,19.2-4.7
		c5.1-3.1,8.9-7.6,11.5-13.3v-86.2h21.9v119.6h-19.6L2766.7,831.7z"/>
	<path class="st0" d="M2895.5,700.9v28.8h22.7v16.1h-22.7v72.6c0,5.6,1.2,9.5,3.5,11.8c2.3,2.3,5.4,3.4,9.3,3.4
		c1.3,0,2.6-0.1,4.2-0.4c1.5-0.3,2.9-0.7,4-1.1l2.9,14.9c-1.6,1.3-4,2.4-7.2,3.3c-3.1,0.8-6.3,1.3-9.5,1.3c-8.9,0-15.9-2.7-21.2-8
		c-5.3-5.3-7.9-13.7-7.9-25.1v-72.6h-19.1v-16.1h19.1v-28.8H2895.5z"/>
	<path class="st0" d="M3042,851.7c-16.7,0-30-5.5-39.9-16.6c-9.9-11.1-14.8-25.5-14.8-43.2V787c0-17,5.1-31.2,15.3-42.5
		c10.2-11.3,22.2-17,36.1-17c16.2,0,28.4,4.9,36.7,14.6c8.3,9.7,12.4,22.7,12.4,38.9v13.6h-77.9l-0.3,0.6
		c0.2,11.5,3.1,20.9,8.8,28.3c5.6,7.4,13.5,11.1,23.6,11.1c7.4,0,13.9-1.1,19.5-3.2c5.6-2.1,10.4-5,14.5-8.7l8.5,14.2
		c-4.3,4.2-9.9,7.8-17,10.6C3060.5,850.3,3052,851.7,3042,851.7z M3038.7,744.7c-7.3,0-13.6,3.1-18.7,9.2
		c-5.2,6.1-8.4,13.8-9.5,23.1l0.2,0.6h55.3v-2.9c0-8.5-2.3-15.6-6.9-21.4C3054.5,747.6,3047.7,744.7,3038.7,744.7z"/>
	<path class="st0" d="M3229.1,817.6c0-4.8-1.8-8.7-5.5-11.8s-10.6-5.8-20.8-8.1c-14.6-3.2-25.5-7.4-32.9-12.9
		c-7.4-5.4-11-12.8-11-22.1c0-9.7,4.1-18,12.4-24.8c8.3-6.8,19.1-10.3,32.4-10.3c14,0,25.1,3.6,33.3,10.7
		c8.2,7.1,12.2,15.8,11.8,26.1l-0.2,0.7h-20.9c0-5.2-2.2-9.9-6.6-14.1c-4.4-4.2-10.2-6.2-17.5-6.2c-7.8,0-13.5,1.7-17.3,5.1
		c-3.8,3.4-5.7,7.5-5.7,12.3c0,4.7,1.7,8.4,5,11.2c3.3,2.7,10.1,5.2,20.3,7.3c15.2,3.2,26.4,7.6,33.8,13.2
		c7.4,5.6,11.1,13,11.1,22.4c0,10.6-4.3,19.2-12.9,25.8c-8.6,6.6-19.9,9.8-33.8,9.8c-15.3,0-27.4-3.9-36.2-11.6
		c-8.8-7.7-13-16.8-12.5-27.1l0.2-0.7h20.9c0.4,7.7,3.3,13.3,8.7,16.9c5.4,3.6,11.7,5.3,19,5.3c7.8,0,13.8-1.6,18.2-4.7
		C3226.9,826.7,3229.1,822.6,3229.1,817.6z"/>
</g>
<polygon class="st2" points="111.3,340.1 111.3,697.4 47.4,734.3 47.4,303.2 "/>
<polygon class="st3" points="420.8,876.1 420.8,949.8 47.4,734.3 111.3,697.4 "/>
<polygon class="st4" points="794.1,734.3 420.8,949.8 420.8,876.1 730.3,697.4 "/>
<polygon class="st5" points="794.1,303.2 794.1,734.3 730.3,697.4 730.3,340.1 "/>
<polygon class="st6" points="794.1,303.2 730.3,340.1 420.8,161.4 420.8,87.7 "/>
<polygon class="st4" points="420.8,87.7 420.8,161.4 111.3,340.1 47.4,303.2 "/>
<g>
	<line class="st1" x1="242.5" y1="387.1" x2="428.5" y2="732.9"/>
	<line class="st1" x1="612.5" y1="389.1" x2="428.5" y2="732.9"/>
	<line class="st1" x1="350.4" y1="587.7" x2="432" y2="438.9"/>
	<line class="st1" x1="510.1" y1="580.4" x2="432" y2="438.9"/>
</g>
<circle class="st6" cx="243.2" cy="386.8" r="29.6"/>
<circle class="st6" cx="613.5" cy="388.2" r="29.6"/>
<circle class="st5" cx="432.3" cy="439.5" r="29.6"/>
<circle class="st6" cx="428.4" cy="726.4" r="29.6"/>
<circle class="st6" cx="508.6" cy="574.9" r="29.6"/>
<circle class="st6" cx="351.7" cy="581.7" r="29.6"/>
</svg>
